<svg width="1559" height="959" viewBox="0 0 1559 959" fill="none" xmlns="http://www.w3.org/2000/svg">
<g clip-path="url(#clip0_5_21)">
<path d="M909.417 679.292C903.677 679.292 899.023 683.585 899.023 688.882C899.023 694.178 903.677 698.472 909.417 698.472C915.157 698.472 919.81 694.178 919.81 688.882C919.81 683.585 915.157 679.292 909.417 679.292Z" fill="white"/>
<path d="M559.07 795.302C455.824 760.524 383.608 677.578 341.21 614.124C295.174 545.233 273.355 483.788 273.14 483.173L268.583 484.85C268.798 485.465 290.771 547.375 337.092 616.731C379.899 680.82 452.864 764.609 557.389 799.822L559.07 795.302Z" fill="#1B374C"/>
<path d="M277.178 460.846C286.57 477.23 288.209 495.851 283.18 511.989C266.769 508.284 251.548 497.548 242.154 481.164C232.752 464.779 231.111 446.157 236.142 430.02C252.562 433.725 267.774 444.461 277.178 460.846ZM267.067 523.504C275.605 526.598 283.349 531.303 289.803 537.318C296.258 543.332 301.28 550.524 304.549 558.432C289.143 565.882 270.192 567.255 252.245 560.735C243.708 557.638 235.966 552.931 229.512 546.917C223.058 540.902 218.035 533.712 214.763 525.805C230.169 518.347 249.12 516.984 267.067 523.504ZM281.225 619.853C307.755 616.356 327.917 604.784 326.257 594.006C324.596 583.229 301.743 577.328 275.212 580.826C248.681 584.325 228.52 595.897 230.179 606.673C231.841 617.451 254.694 623.352 281.225 619.853ZM317.631 674.645C344.161 671.148 364.323 659.576 362.662 648.799C361.002 638.021 338.149 632.12 311.616 635.619C285.086 639.117 264.924 650.689 266.586 661.465C268.245 672.243 291.098 678.144 317.631 674.645Z" fill="#1B374C"/>
<path d="M309.844 550.142C310.889 532.848 318.684 517.23 330.156 506.569C340.359 516.871 346.29 532.259 345.246 549.553C344.201 566.847 336.406 582.465 324.932 593.126C314.72 582.824 308.8 567.436 309.844 550.142ZM347.847 606.847C348.617 589.544 356.176 573.794 367.474 562.944C377.851 573.055 384.018 588.331 383.249 605.634C382.481 622.938 374.92 638.688 363.612 649.539C353.255 639.426 347.08 624.151 347.847 606.847ZM374.83 692.125C382.164 688.543 390.226 688.429 397.027 691.158C394.948 698.227 389.868 704.539 382.544 708.121C375.208 711.703 367.146 711.816 360.345 709.086C362.414 702.018 367.496 695.707 374.83 692.125ZM519.055 800.589C478.921 756.096 469.075 696.05 467.883 653.515C466.586 607.333 474.925 571.236 475.01 570.877L472.238 570.498C472.153 570.858 463.747 607.224 465.041 653.71C466.238 696.667 476.191 757.329 516.82 802.375L519.055 800.589Z" fill="#1B374C"/>
<path d="M483.945 560.927C483.486 571.498 478.506 581.122 471.005 587.753C464.059 581.581 459.886 572.254 460.345 561.681C460.799 551.108 465.781 541.485 473.279 534.853C480.231 541.028 484.399 550.352 483.945 560.927ZM459.474 589.17C462.725 592.957 465.083 597.329 466.398 602.005C467.713 606.682 467.955 611.56 467.109 616.328C457.191 615.926 447.412 611.586 440.584 603.619C437.334 599.831 434.977 595.459 433.662 590.783C432.347 586.107 432.104 581.229 432.948 576.461C442.869 576.859 452.645 581.202 459.474 589.17ZM436.503 640.462C450.683 645.759 464.23 645.386 466.761 639.629C469.292 633.87 459.849 624.91 445.671 619.613C431.491 614.316 417.944 614.689 415.413 620.446C412.88 626.205 422.324 635.165 436.503 640.462ZM437.429 677.137C451.609 682.434 465.157 682.06 467.688 676.303C470.22 670.546 460.776 661.584 446.598 656.287C432.418 650.99 418.87 651.364 416.34 657.121C413.809 662.878 423.251 671.84 437.429 677.137Z" fill="#1B374C"/>
<path d="M472.299 613.639C478.192 605.382 486.895 599.738 495.871 597.515C497.702 605.298 495.845 614.462 489.952 622.72C484.059 630.977 475.357 636.619 466.38 638.844C464.544 631.057 466.408 621.896 472.299 613.639ZM473.422 651.681C479.181 643.345 487.809 637.575 496.758 635.211C498.735 642.947 497.028 652.118 491.269 660.454C485.509 668.789 476.883 674.559 467.929 676.92C465.961 669.189 467.664 660.016 473.422 651.681ZM460.222 700.903C464.955 701.077 468.968 703.155 471.476 706.302C468.251 709.241 463.782 711.011 459.055 710.838C454.322 710.665 450.309 708.588 447.8 705.439C451.019 702.5 455.488 700.73 460.222 700.903Z" fill="#1B374C"/>
<path d="M639.2 809.04C630.037 797.424 579.044 735.676 545.328 724.625C508.113 712.427 542.125 757.837 542.125 757.837C542.125 757.837 477.591 688.976 452.945 694.37C430.355 699.316 451.467 741.492 451.467 741.492C451.467 741.492 426.943 717.799 396.326 716.98C366.528 716.186 414.389 801.251 416.984 805.694L639.2 809.04ZM1162.1 741.807C1090.22 670.197 1067.8 570.143 1061.65 498.825C1054.97 421.391 1065.49 360.141 1065.59 359.537L1060.89 359.114C1060.78 359.727 1050.18 421.426 1056.88 499.372C1063.08 571.399 1085.74 672.476 1158.51 744.978L1162.1 741.807Z" fill="#141B20"/>
<path d="M1079.66 342.147C1079.92 359.935 1072.47 376.462 1060.5 388.173C1048.21 378.345 1040.28 363.005 1040.02 345.222C1039.75 327.435 1047.2 310.908 1059.18 299.197C1071.47 309.017 1079.39 324.361 1079.66 342.147ZM1041.23 391.437C1047.06 397.53 1051.46 404.681 1054.13 412.431C1056.79 420.181 1057.68 428.36 1056.72 436.444C1039.99 436.532 1023.11 430 1010.84 417.147C998.574 404.295 993.473 387.799 995.343 372.148C1012.08 372.054 1028.96 378.584 1041.23 391.437ZM1007.55 479.324C1031.93 487.127 1054.7 485.459 1058.4 475.598C1062.1 465.737 1045.33 451.417 1020.95 443.616C996.57 435.813 973.805 437.481 970.105 447.343C966.407 457.203 983.171 471.523 1007.55 479.324ZM1012.69 540.815C1037.07 548.618 1059.83 546.95 1063.53 537.09C1067.23 527.228 1050.47 512.908 1026.09 505.107C1001.71 497.304 978.943 498.972 975.243 508.834C971.543 518.694 988.307 533.014 1012.69 540.815Z" fill="#1B374C"/>
<path d="M1002.78 712.515C981.399 721.737 987.169 744.643 987.169 744.643C987.169 744.643 929.204 702.96 907.53 727.288C885.857 751.618 897.249 799.301 922.666 807.056C948.082 814.806 1169.16 809.374 1169.16 809.374C1169.16 809.374 1022.01 704.221 1002.78 712.515Z" fill="#141B20"/>
<path d="M1100.12 807.149C1100.12 807.149 1168.03 726.876 1196.41 714.573C1226.65 701.465 1200.43 746.884 1200.43 746.884C1200.43 746.884 1265.09 688.383 1280.28 702.99C1295.47 717.596 1279.25 731.265 1279.25 731.265C1279.25 731.265 1333.4 721.998 1341.3 740.682C1353.43 769.388 1264.37 783.663 1264.37 783.663C1264.37 783.663 1307.04 775.04 1298.5 792.812C1285.63 819.608 1100.12 807.149 1100.12 807.149Z" fill="#141B20"/>
<path d="M1146.08 737.389C1146.08 737.389 1082.03 654.006 1076.03 623.662C1069.64 591.325 1108.46 626.586 1108.46 626.586C1108.46 626.586 1065 550.982 1082.5 539.236C1100 527.49 1109.91 546.24 1109.91 546.24C1109.91 546.24 1112.34 491.357 1132.28 487.601C1162.9 481.834 1157.96 571.9 1157.96 571.9C1157.96 571.9 1158.59 528.374 1174.14 540.488C1197.6 558.749 1146.08 737.389 1146.08 737.389Z" fill="#141B20"/>
<path d="M1169.16 809.174C1169.16 809.174 1060.96 816.218 1039.89 798.377C1018.82 780.536 1039.72 748.213 1039.72 748.213C1039.72 748.213 1002.6 721.187 1003.17 703.54C1003.75 685.893 1027.94 694.848 1027.94 694.848C1027.94 694.848 986.946 646.24 996.663 636.992C1014.78 619.776 1062.17 670.301 1062.17 670.301C1062.17 670.301 1048.11 646.265 1062.94 642.45C1085.32 636.693 1101.79 695.972 1101.79 695.972C1101.79 695.972 1097.61 672.561 1113.04 675.671C1140.73 681.248 1169.16 809.174 1169.16 809.174Z" fill="#141B20"/>
<path d="M1162.74 784.94C1162.74 784.94 1114.9 687.644 1123.33 661.357C1131.77 635.063 1169.62 642.033 1169.62 642.033C1169.62 642.033 1180.41 597.396 1196.94 591.186C1213.47 584.977 1214.44 610.752 1214.44 610.752C1214.44 610.752 1243.7 554.297 1255.96 559.744C1278.78 569.904 1250.2 633.008 1250.2 633.008C1250.2 633.008 1267.04 610.827 1276.24 623.08C1290.11 641.561 1241.62 679.426 1241.62 679.426C1241.62 679.426 1261.65 666.622 1264.67 682.067C1270.1 709.785 1162.74 784.94 1162.74 784.94Z" fill="#141B20"/>
<path d="M690.235 181.245C685.205 181.245 681.127 185.007 681.127 189.649C681.127 194.29 685.205 198.053 690.235 198.053C695.265 198.053 699.343 194.29 699.343 189.649C699.343 185.007 695.265 181.245 690.235 181.245Z" fill="#E1E4E5"/>
<path d="M1123.81 253.523C1118.78 253.523 1114.7 257.285 1114.7 261.927C1114.7 266.568 1118.78 270.331 1123.81 270.331C1128.84 270.331 1132.91 266.568 1132.91 261.927C1132.91 257.285 1128.84 253.523 1123.81 253.523Z" fill="#E1E4E5"/>
<path d="M335.909 297.226C331.381 297.226 327.71 300.613 327.71 304.791C327.71 308.969 331.381 312.356 335.909 312.356C340.437 312.356 344.108 308.969 344.108 304.791C344.108 300.613 340.437 297.226 335.909 297.226Z" fill="#E1E4E5"/>
<path d="M895.803 201.389C910.766 205.089 919.645 219.28 915.636 233.086C911.627 246.892 896.247 255.086 881.284 251.386C866.321 247.687 857.442 233.496 861.451 219.69C865.46 205.883 880.84 197.69 895.803 201.389Z" fill="#141B20"/>
<path d="M529.848 180.367C525.33 162.079 482.632 135.37 459.814 151.473C452.811 116.633 446.26 94.9063 423.378 77.7433C400.496 60.5803 362.316 83.0143 356.184 130.003C350.052 110.687 318.876 84.6533 293.831 106.605C270.659 126.918 268.335 160.954 270.756 180.335H529.848V180.367ZM516.318 324.82C512.281 308.48 474.133 284.618 453.747 299.004C447.49 267.877 441.636 248.465 421.193 233.131C400.749 217.797 366.638 237.84 361.159 279.822C355.681 262.564 327.826 239.305 305.451 258.917C284.748 277.066 282.671 307.475 284.834 324.791H516.318V324.82ZM896.159 181.367C892.403 166.165 856.91 143.963 837.943 157.349C832.122 128.388 826.676 110.327 807.655 96.0603C788.634 81.7933 756.897 100.442 751.8 139.502C746.702 123.445 720.787 101.804 699.969 120.052C680.707 136.937 678.775 165.23 680.787 181.34H896.159V181.367ZM913.007 330.367C908.488 312.079 865.791 285.37 842.973 301.473C835.97 266.633 829.418 244.906 806.536 227.743C783.654 210.58 745.475 233.014 739.343 280.003C733.211 260.687 702.034 234.653 676.99 256.605C653.818 276.918 651.494 310.954 653.915 330.335H913.007V330.367Z" fill="white" stroke="#E1E4E5" stroke-width="4"/>
<path d="M669.677 141.914C666.759 130.116 639.187 112.884 624.453 123.273C619.931 100.795 615.7 86.7783 600.924 75.7053C586.149 64.6323 561.495 79.1063 557.535 109.421C553.575 96.9593 533.443 80.1633 517.271 94.3263C502.308 107.431 500.808 129.39 502.371 141.893H669.677V141.914Z" fill="url(#paint0_linear_5_21)"/>
<path d="M529.725 422.929C526.807 411.13 499.236 393.899 484.502 404.287C479.979 381.81 475.749 367.793 460.973 356.72C446.197 345.647 421.543 360.12 417.583 390.436C413.624 377.974 393.492 361.178 377.32 375.34C362.356 388.445 360.856 410.404 362.419 422.908H529.725V422.929ZM653.159 413.25C655.298 404.601 675.509 391.97 686.31 399.585C689.625 383.108 692.726 372.833 703.557 364.716C714.389 356.599 732.461 367.209 735.364 389.431C738.266 380.296 753.024 367.984 764.878 378.366C775.847 387.972 776.947 404.069 775.801 413.235H653.159V413.25Z" fill="white" stroke="#E1E4E5" stroke-width="4"/>
<path fill-rule="evenodd" clip-rule="evenodd" d="M636.69 50.3703L717.49 50.0583C724.715 50.0313 727.793 40.6663 721.865 36.5393L721.613 36.3673C713.174 30.6123 702.129 31.1803 702.129 31.1803C702.129 31.1803 700.432 -0.113689 670.71 0.000310711C643.839 0.103311 633.225 26.5173 629.416 41.0613C628.179 45.7863 631.805 50.3903 636.69 50.3703Z" fill="white"/>
<path d="M585.617 357.177V390.275" stroke="#E1E4E5" stroke-width="4.288" stroke-linecap="round" stroke-linejoin="round"/>
<path d="M551.549 358.444L558.942 392.917" stroke="#E1E4E5" stroke-width="4.288" stroke-linecap="round" stroke-linejoin="round"/>
<path d="M621.656 358.444L613.284 392.917" stroke="#E1E4E5" stroke-width="4.288" stroke-linecap="round" stroke-linejoin="round"/>
<path d="M604.413 358.229L598.369 392.262" stroke="#E1E4E5" stroke-width="4.288" stroke-linecap="round" stroke-linejoin="round"/>
<path d="M567.34 358.229L573.382 392.262" stroke="#E1E4E5" stroke-width="4.288" stroke-linecap="round" stroke-linejoin="round"/>
<path fill-rule="evenodd" clip-rule="evenodd" d="M562.106 37.5893C546.31 43.9903 532.005 56.4703 520.454 73.5733C503.179 99.1533 492.364 134.718 492.364 174.199C492.364 189.947 496.553 209.041 503.004 229.018C509.437 248.941 518.033 269.487 526.66 288.061C535.282 306.626 543.908 323.165 550.38 335.064C552.935 339.767 555.539 344.442 558.193 349.089C558.918 350.357 559.523 351.404 559.993 352.212H572.175L572.058 351.574C571.402 348.006 570.465 342.835 569.342 336.41C566.388 319.52 563.642 302.593 561.104 285.635C555.124 245.578 549.102 196.496 549.102 161.063C549.102 117.761 552.91 78.4403 559.119 49.8403C560.005 45.7307 561.001 41.6456 562.106 37.5893ZM593.674 352.212H580.311C580.196 351.595 580.068 350.899 579.926 350.127C579.274 346.58 578.341 341.431 577.222 335.032C574.28 318.207 571.545 301.347 569.017 284.454C563.039 244.416 557.102 195.849 557.102 161.063C557.102 118.156 560.881 79.4313 566.937 51.5373C568.295 45.2833 569.758 39.6173 571.303 34.5973C576.31 33.3566 581.45 32.7287 586.609 32.7273C592.093 32.7273 597.486 33.4373 602.747 34.8093C604.268 39.7763 605.709 45.3713 607.048 51.5373C613.104 79.4313 616.883 118.156 616.883 161.063C616.883 195.849 610.946 244.416 604.968 284.454C602.439 301.347 599.704 318.207 596.762 335.032C595.801 340.534 594.814 346.031 593.802 351.523L593.674 352.212ZM601.81 352.212H613.227C613.696 351.404 614.301 350.357 615.026 349.089C617.68 344.442 620.284 339.767 622.839 335.064C629.311 323.165 637.937 306.626 646.559 288.061C655.185 269.487 663.781 248.941 670.214 229.018C676.665 209.041 680.855 189.947 680.855 174.199C680.855 134.718 670.04 99.1533 652.764 73.5733C641.425 56.7833 627.431 44.4483 611.977 37.9463C613.042 41.8854 614.005 45.8514 614.866 49.8403C621.076 78.4403 624.883 117.761 624.883 161.063C624.883 196.496 618.861 245.578 612.88 285.635C610.342 302.593 607.596 319.52 604.643 336.41C603.76 341.469 602.854 346.524 601.927 351.574L601.81 352.212ZM513.825 69.0963C525.123 52.3663 539.251 39.3563 555.214 31.8663C485.518 45.7703 433.208 104.213 433.208 174.2C433.208 239.642 541.874 356.213 541.874 356.213H553.064C552.456 355.165 551.851 354.115 551.249 353.062C548.567 348.365 545.934 343.64 543.353 338.887C536.824 326.884 528.116 310.19 519.404 291.432C510.696 272.683 501.959 251.817 495.391 231.477C488.841 211.192 484.364 191.174 484.364 174.2C484.364 133.339 495.542 96.1663 513.825 69.0963ZM659.394 69.0963C647.902 52.0793 633.483 38.9123 617.182 31.4863C687.861 44.6723 741.159 103.555 741.159 174.2C741.159 239.642 632.492 356.213 632.492 356.213H620.155C620.632 355.393 621.242 354.336 621.971 353.062C624.652 348.365 627.284 343.64 629.867 338.887C636.395 326.884 645.103 310.19 653.815 291.432C662.522 272.683 671.26 251.817 677.827 231.477C684.377 211.192 688.855 191.174 688.855 174.2C688.855 133.339 677.676 96.1663 659.394 69.0963Z" fill="#141B20"/>
<path fill-rule="evenodd" clip-rule="evenodd" d="M598.43 453.982H572.547C562.432 453.982 554.232 445.679 554.232 435.439V408.265L549.806 393.489C577.23 393.609 615.713 394.09 621.169 393.489L616.745 408.265V435.439C616.745 445.679 608.544 453.982 598.43 453.982Z" fill="white"/>
<path d="M555.443 409.806C555.443 409.689 555.426 409.572 555.392 409.459L551.435 396.248C557.845 396.279 564.796 396.327 571.751 396.376H571.786C579.323 396.428 586.864 396.481 593.72 396.511C600.587 396.541 606.772 396.549 611.583 396.511C614.951 396.485 617.685 396.436 619.509 396.355L615.585 409.459C615.551 409.572 615.534 409.689 615.534 409.806V436.98C615.534 446.566 607.861 454.312 598.43 454.312H572.547C563.115 454.312 555.443 446.566 555.443 436.98V409.806Z" fill="#141B20" stroke="white" stroke-width="2.421" stroke-linecap="round" stroke-linejoin="round"/>
<path d="M553.983 408.643H616.682" stroke="white" stroke-width="4.842" stroke-linecap="round" stroke-linejoin="round"/>
<path d="M897.315 82.553H897.529C898.796 99.268 912.147 99.525 912.147 99.525C912.147 99.525 897.425 99.793 897.425 119.105C897.425 99.793 882.703 99.525 882.703 99.525C882.703 99.525 896.048 99.268 897.315 82.553ZM638.626 221H638.826C640.007 236.586 652.457 236.826 652.457 236.826C652.457 236.826 638.728 237.075 638.728 255.085C638.728 237.075 625 236.826 625 236.826C625 236.826 637.445 236.586 638.626 221ZM851.917 258.528H852.047C852.817 268.682 860.927 268.838 860.927 268.838C860.927 268.838 851.983 269.001 851.983 280.733C851.983 269.001 843.04 268.838 843.04 268.838C843.04 268.838 851.147 268.682 851.917 258.528ZM607.72 108.217H607.85C608.62 118.371 616.73 118.527 616.73 118.527C616.73 118.527 607.787 118.69 607.787 130.422C607.787 118.69 598.843 118.527 598.843 118.527C598.843 118.527 606.95 118.371 607.72 108.217ZM500.877 269.217H501.007C501.776 279.371 509.887 279.527 509.887 279.527C509.887 279.527 500.943 279.69 500.943 291.422C500.943 279.69 492 279.527 492 279.527C492 279.527 500.107 279.371 500.877 269.217ZM428.877 307H429.007C429.776 317.154 437.887 317.31 437.887 317.31C437.887 317.31 428.943 317.472 428.943 329.205C428.943 317.472 420 317.31 420 317.31C420 317.31 428.107 317.154 428.877 307ZM669.936 60H670.066C670.835 70.153 678.946 70.31 678.946 70.31C678.946 70.31 670.002 70.472 670.002 82.205C670.002 70.472 661.059 70.31 661.059 70.31C661.059 70.31 669.166 70.153 669.936 60ZM572.092 194H572.222C572.992 204.154 581.103 204.31 581.103 204.31C581.103 204.31 572.159 204.472 572.159 216.205C572.159 204.472 563.216 204.31 563.216 204.31C563.216 204.31 571.323 204.154 572.092 194ZM517.093 164H517.223C517.992 174.154 526.103 174.31 526.103 174.31C526.103 174.31 517.159 174.472 517.159 186.205C517.159 174.472 508.216 174.31 508.216 174.31C508.216 174.31 516.323 174.154 517.093 164ZM703.533 272.312H703.631C704.212 279.976 710.334 280.094 710.334 280.094C710.334 280.094 703.583 280.217 703.583 289.073C703.583 280.217 696.833 280.094 696.833 280.094C696.833 280.094 702.952 279.976 703.533 272.312ZM897.18 204.652H897.278C897.859 212.317 903.981 212.435 903.981 212.435C903.981 212.435 897.23 212.557 897.23 221.413C897.23 212.557 890.48 212.435 890.48 212.435C890.48 212.435 896.599 212.317 897.18 204.652ZM977.7 208H977.798C978.379 215.664 984.501 215.782 984.501 215.782C984.501 215.782 977.751 215.905 977.751 224.761C977.751 215.905 971 215.782 971 215.782C971 215.782 977.119 215.664 977.7 208ZM971.252 293.652H971.35C971.931 301.317 978.053 301.435 978.053 301.435C978.053 301.435 971.302 301.557 971.302 310.413C971.302 301.557 964.551 301.435 964.551 301.435C964.551 301.435 970.671 301.317 971.252 293.652ZM853.629 60H853.727C854.308 67.664 860.43 67.782 860.43 67.782C860.43 67.782 853.679 67.905 853.679 76.761C853.679 67.905 846.928 67.782 846.928 67.782C846.928 67.782 853.048 67.664 853.629 60ZM927.7 149H927.798C928.379 156.664 934.501 156.782 934.501 156.782C934.501 156.782 927.751 156.905 927.751 165.761C927.751 156.905 921 156.782 921 156.782C921 156.782 927.119 156.664 927.7 149Z" fill="#E1E4E5"/>
<path fill-rule="evenodd" clip-rule="evenodd" d="M607.79 431.808H604.995C604.319 431.808 603.775 431.258 603.775 430.588V427.793C603.775 427.117 604.325 426.573 604.995 426.573H607.79C608.46 426.573 609.01 427.123 609.01 427.793V430.588C609.016 431.258 608.466 431.808 607.79 431.808ZM598.099 431.808H595.304C594.634 431.808 594.084 431.258 594.084 430.588V427.793C594.084 427.117 594.634 426.573 595.304 426.573H598.099C598.769 426.573 599.319 427.123 599.319 427.793V430.588C599.319 431.258 598.769 431.808 598.099 431.808ZM588.403 431.808H585.608C584.938 431.808 584.388 431.258 584.388 430.588V427.793C584.388 427.117 584.938 426.573 585.608 426.573H588.403C589.073 426.573 589.623 427.123 589.623 427.793V430.588C589.628 431.258 589.078 431.808 588.403 431.808ZM578.712 431.808H575.917C575.247 431.808 574.697 431.258 574.697 430.588V427.793C574.697 427.117 575.247 426.573 575.917 426.573H578.712C579.388 426.573 579.937 427.123 579.937 427.793V430.588C579.934 430.911 579.804 431.221 579.574 431.449C579.345 431.677 579.035 431.806 578.712 431.808ZM569.021 431.808H566.226C565.55 431.808 565 431.258 565 430.588V427.793C565 427.117 565.55 426.573 566.226 426.573H569.021C569.691 426.573 570.241 427.123 570.241 427.793V430.588C570.241 431.258 569.691 431.808 569.021 431.808ZM597.744 421.241H594.949C594.279 421.241 593.729 420.691 593.729 420.021V417.22C593.729 416.55 594.279 416 594.949 416H597.744C598.42 416 598.964 416.55 598.964 417.22V420.015C598.965 420.176 598.934 420.335 598.873 420.484C598.813 420.633 598.723 420.768 598.609 420.882C598.496 420.996 598.361 421.087 598.213 421.148C598.064 421.21 597.905 421.241 597.744 421.241ZM588.053 421.241H585.258C584.588 421.241 584.038 420.691 584.038 420.021V417.22C584.038 416.55 584.588 416 585.258 416H588.053C588.723 416 589.273 416.55 589.273 417.22V420.015C589.274 420.176 589.243 420.335 589.182 420.484C589.122 420.633 589.032 420.768 588.918 420.882C588.805 420.996 588.67 421.087 588.522 421.148C588.373 421.21 588.214 421.241 588.053 421.241ZM578.362 421.241H575.567C574.892 421.241 574.342 420.691 574.342 420.021V417.22C574.342 416.55 574.892 416 575.567 416H578.362C579.033 416 579.582 416.55 579.582 417.22V420.015C579.582 420.691 579.033 421.241 578.362 421.241ZM588.403 443.16H585.608C584.938 443.16 584.388 442.61 584.388 441.94V439.145C584.388 438.469 584.938 437.925 585.608 437.925H588.403C589.073 437.925 589.623 438.475 589.623 439.145V441.94C589.628 442.61 589.078 443.16 588.403 443.16ZM578.712 443.16H575.917C575.247 443.16 574.697 442.61 574.697 441.94V439.145C574.697 438.469 575.247 437.925 575.917 437.925H578.712C579.388 437.925 579.937 438.475 579.937 439.145V441.94C579.934 442.263 579.804 442.573 579.574 442.801C579.345 443.029 579.035 443.158 578.712 443.16Z" fill="#E1E4E5"/>
<path d="M795.001 701.316C797.625 700.613 799.183 697.916 798.48 695.292C797.776 692.668 795.079 691.111 792.455 691.814C789.831 692.517 788.274 695.214 788.977 697.838C789.68 700.462 792.377 702.02 795.001 701.316Z" fill="#E1E4E5"/>
<path d="M534.978 636.181C543.534 700.17 550.086 770.232 539.486 795.732" stroke="#1B374C" stroke-width="2.5" stroke-miterlimit="10"/>
<path d="M556.161 654.073C556.161 654.073 545.927 646.915 542.301 632.449L520.634 626.042L541.355 627.047C540.834 622.505 540.961 617.428 542.165 611.738C542.302 611.094 542.398 610.463 542.535 609.819C536.776 609.005 529.367 607.742 528.669 607.604L543.703 602.718C548.166 566.336 531.888 540.983 516.941 565.667C513.886 570.733 510.144 576.319 506.479 583.143L509.424 599.889L502.69 590.408C501.594 592.647 501.376 593.263 501.008 594.726C497.804 607.46 502.306 620.895 511.997 629.797C524.151 640.91 543.1 655.823 556.161 654.073Z" fill="#1B374C"/>
<path d="M951.621 565.2L932.916 567.3L950.869 571.159C949.091 584.799 947.512 599.403 955.069 612.956C957.518 617.386 959.549 621.701 961.039 625.885L944.515 637.194L940.204 640.133L946.859 638.157L963.272 633.303C964.104 636.782 964.621 640.151 964.793 643.389C965.651 658.61 976.202 699.666 964.077 706.929L964.065 706.934C963.169 706.321 921.448 678.066 904.71 616.48C902.573 608.563 901.35 600.592 901.06 592.694C901.045 592.437 901.039 592.191 901.031 591.946C899.607 547.141 927.496 514.259 944.537 530.738C953.879 539.76 953.298 551.894 951.621 565.2Z" fill="#1B374C"/>
<path d="M964.81 643.415C974.506 679.681 976.218 699.692 964.094 706.953L964.081 706.959C963.541 707.169 933.928 718.23 904.413 620.898C901.948 612.747 901.34 600.627 901.076 592.72C901.062 592.461 901.054 592.216 901.047 591.971C905.692 601.63 913.812 615.552 925.903 626.311C925.903 626.311 933.242 632.155 944.531 637.218L940.22 640.159L946.875 638.182C952.179 640.381 958.271 642.35 964.81 643.415Z" fill="#1B374C"/>
<path d="M990.339 749.011C910.675 624.462 919.805 546.369 938.739 527.336" stroke="#1B374C" stroke-width="2.5" stroke-miterlimit="10"/>
<path d="M1348.74 661.078L1337.04 661.725L1345.61 666.071C1328.69 692.204 1308.32 712.746 1296.63 704.764C1281.1 694.215 1303.49 642.656 1324.11 611.218L1331.66 623.976L1327.37 606.657C1328.72 604.784 1332.62 599.287 1333.9 597.702C1347.63 580.833 1365.29 567.292 1382.16 564.768C1380.05 581.704 1375.96 599.547 1370.56 615.855C1366.05 629.493 1358.07 645.951 1348.74 661.078Z" fill="#1B374C"/>
<path d="M1333.89 597.691L1370.56 615.855C1375.97 599.557 1380.04 581.706 1382.16 564.768C1365.3 567.302 1347.62 580.823 1333.89 597.691Z" fill="#1B374C"/>
<path d="M1379.57 572.641C1348.56 628.029 1283.69 727.471 1257.25 760.317" stroke="#1B374C" stroke-width="2.5" stroke-miterlimit="10"/>
<path d="M987.991 602.747C1052.52 649.198 1120.91 701.975 1135.4 730.02" stroke="#1B374C" stroke-width="2.5" stroke-miterlimit="10"/>
<path d="M1064.26 618.553C1064.26 618.553 1049.24 617.641 1034.76 606.447L1009.69 612.485L1029.73 602.043C1025.75 598.19 1021.97 593.495 1018.71 587.65C1018.35 586.988 1017.95 586.36 1017.58 585.699C1011.61 588.113 1003.75 591.023 1002.99 591.28L1013.21 578.588C989.404 542.992 954.791 528.813 959.865 559.496C960.918 565.787 961.733 572.927 963.569 581.154L979.174 594.798L965.63 589.85C966.331 592.491 966.602 593.172 967.385 594.707C974.191 608.066 988.701 617.84 1004.55 620.639C1024.39 624.104 1053.46 627.307 1064.26 618.553Z" fill="#1B374C"/>
<path d="M1271.26 519.553C1271.26 519.553 1256.24 518.641 1241.76 507.447L1216.69 513.485L1236.73 503.043C1232.75 499.19 1228.97 494.495 1225.71 488.65C1225.35 487.988 1224.95 487.36 1224.58 486.699C1218.61 489.113 1210.75 492.023 1209.99 492.28L1220.21 479.588C1196.4 443.992 1161.79 429.813 1166.86 460.496C1167.92 466.787 1168.73 473.927 1170.57 482.154L1186.17 495.798L1172.63 490.85C1173.33 493.491 1173.6 494.172 1174.38 495.707C1181.19 509.066 1195.7 518.84 1211.55 521.639C1231.39 525.104 1260.46 528.307 1271.26 519.553Z" fill="#1B374C"/>
<path d="M835.733 625.388C901.851 669.542 972.057 719.883 987.518 747.402" stroke="#1B374C" stroke-width="2.5" stroke-miterlimit="10"/>
<path d="M822.824 646C849.784 713.515 882.991 785.062 912.079 800.138" stroke="#1B374C" stroke-width="2.5" stroke-miterlimit="10"/>
<path d="M912.507 638.504C912.507 638.504 897.471 638.12 882.6 627.442L857.762 634.356L877.417 623.217C873.31 619.506 869.364 614.947 865.907 609.22C865.516 608.571 865.099 607.958 864.709 607.31C858.818 609.933 851.067 613.117 850.322 613.401L860.09 600.357C835.044 565.62 799.954 552.666 806.103 583.152C807.377 589.402 808.442 596.509 810.566 604.666L826.642 617.754L812.931 613.284C813.725 615.899 814.02 616.57 814.856 618.076C822.128 631.188 836.972 640.446 852.909 642.687C872.856 645.452 902.025 647.632 912.507 638.504Z" fill="#1B374C"/>
<path d="M558.52 625.046C598.018 696.931 637.89 776.224 636.836 807.776" stroke="#1B374C" stroke-width="2.5" stroke-miterlimit="10"/>
<path d="M627.218 675.803C627.218 675.803 612.456 667.735 604.019 650.926L575.117 644.073L601.38 644.637C599.506 639.342 598.3 633.401 598.28 626.712C598.279 625.955 598.23 625.214 598.229 624.458C590.786 623.675 581.152 622.416 580.24 622.276L597.785 616.119C593.602 573.446 566.368 544.28 554.254 573.584C551.784 579.598 548.592 586.24 545.828 594.327L554.024 613.821L543.029 602.933C542.256 605.584 542.149 606.311 542.08 608.033C541.484 623.017 550.743 638.594 565.293 648.717C583.526 661.354 611.305 678.235 627.218 675.803Z" fill="#1B374C"/>
<path d="M1347.95 505.826C1303.18 577.712 1257.99 657.005 1259.19 688.557" stroke="#1B374C" stroke-width="2.5" stroke-miterlimit="10"/>
<path d="M1270.09 556.584C1270.09 556.584 1286.82 548.516 1296.38 531.707L1329.14 524.853L1299.37 525.417C1301.5 520.122 1302.86 514.182 1302.89 507.493C1302.89 506.735 1302.94 505.995 1302.95 505.238C1311.38 504.456 1322.3 503.197 1323.34 503.056L1303.45 496.9C1308.19 454.226 1339.06 425.061 1352.79 454.364C1355.59 460.379 1359.21 467.02 1362.34 475.107L1353.05 494.602L1365.51 483.714C1366.39 486.365 1366.51 487.092 1366.59 488.813C1367.26 503.798 1356.77 519.375 1340.28 529.498C1319.61 542.135 1288.12 559.015 1270.09 556.584Z" fill="#1B374C"/>
<path d="M827.203 642.054C832.466 651.233 833.402 662.028 830.608 671.642C821.438 670.139 812.926 664.488 807.662 655.307C802.393 646.129 801.459 635.332 804.252 625.719C813.427 627.221 821.934 632.874 827.203 642.054ZM821.619 679.003C826.392 680.466 830.722 682.9 834.333 686.15C837.944 689.399 840.757 693.393 842.591 697.875C833.993 702.836 823.409 704.396 813.379 701.313C808.608 699.848 804.279 697.414 800.668 694.165C797.057 690.916 794.244 686.923 792.409 682.443C801.005 677.476 811.589 675.92 821.619 679.003ZM829.625 734.631C844.44 731.528 855.691 723.971 854.752 717.753C853.812 711.533 841.043 709.008 826.229 712.11C811.413 715.214 800.163 722.771 801.102 728.989C802.04 735.21 814.811 737.734 829.625 734.631ZM850.013 765.131C864.829 762.028 876.078 754.47 875.14 748.251C874.202 742.032 861.43 739.506 846.616 742.609C831.801 745.713 820.551 753.271 821.49 759.489C822.429 765.708 835.199 768.234 850.013 765.131Z" fill="#1B374C"/>
<path d="M845.539 692.827C846.105 682.699 850.443 673.277 856.841 666.599C862.549 672.199 865.878 680.936 865.313 691.065C864.746 701.194 860.407 710.614 854.011 717.293C848.296 711.694 844.974 702.954 845.539 692.827ZM866.823 724.377C867.235 714.254 871.443 704.765 877.742 697.984C883.547 703.465 887.008 712.128 886.596 722.251C886.184 732.375 881.978 741.862 875.673 748.644C869.877 743.162 866.413 734.5 866.823 724.377ZM881.98 773.032C886.073 770.65 890.576 770.26 894.378 771.579C893.223 775.788 890.392 779.672 886.305 782.053C882.213 784.437 877.71 784.826 873.907 783.506C875.056 779.302 877.887 775.417 881.98 773.032Z" fill="#1B374C"/>
<path d="M414 800H1267" stroke="#141B20" stroke-width="20.72" stroke-linecap="round" stroke-linejoin="round"/>
<path d="M1069.74 405.016C1079.79 390.903 1094.68 381.788 1110.06 378.825C1113.25 392.967 1110.13 409.161 1100.08 423.275C1090.03 437.388 1075.15 446.503 1059.77 449.465C1056.56 435.318 1059.7 419.13 1069.74 405.016ZM1071.93 473.244C1081.75 458.976 1096.51 449.624 1111.84 446.409C1115.28 460.482 1112.42 476.705 1102.6 490.972C1092.78 505.241 1078.02 514.592 1062.68 517.803C1059.25 503.739 1062.11 487.512 1071.93 473.244ZM1049.63 559.864C1057.75 560.712 1064.65 564.887 1068.97 570.805C1063.46 575.699 1055.81 578.36 1047.7 577.517C1039.58 576.668 1032.68 572.493 1028.36 566.574C1033.86 561.676 1041.51 559.016 1049.63 559.864ZM1114.48 728.269C1104.01 669.27 1127.48 613.128 1149.01 576.423C1172.37 536.569 1198.57 510.374 1198.83 510.114L1196.68 508.324C1196.42 508.584 1170.02 534.972 1146.49 575.082C1124.75 612.148 1101.05 668.869 1111.64 728.599L1114.48 728.269Z" fill="#1B374C"/>
</g>
<defs>
<linearGradient id="paint0_linear_5_21" x1="589.357" y1="181.112" x2="588.459" y2="-4.0747" gradientUnits="userSpaceOnUse">
<stop stop-color="white"/>
<stop offset="1" stop-color="#EEEEEE"/>
</linearGradient>
<clipPath id="clip0_5_21">
<rect width="1559" height="959" fill="white"/>
</clipPath>
</defs>
</svg>
